<svg width="100" height="43" viewBox="0 0 100 43" fill="none" xmlns="http://www.w3.org/2000/svg">
<path d="M72.3545 8.22918L89.7039 4.45217C95.4901 3.66022 99.8189 8.96137 99.8189 14.5223V31.7867C99.8125 34.4632 98.7433 37.0277 96.8465 38.9161C94.9497 40.8045 92.3805 41.8623 89.7039 41.8568H72.3545C69.6779 41.8623 67.1088 40.8045 65.2119 38.9161C63.3151 37.0277 62.246 34.4632 62.2396 31.7867V18.2993C62.2396 12.7372 66.7407 9.44068 72.3545 8.22918Z" fill="#FCBF17"/>
<path d="M40.4795 41.7132H29.4277C29.1829 41.735 28.9358 41.7684 28.7013 41.7798C27.5668 41.835 26.4726 41.6247 26.5404 40.2258C26.599 38.9523 27.645 38.7948 28.7013 38.8465C28.9484 38.8603 29.1932 38.8936 29.4277 38.9155H40.4795C41.4753 38.7461 42.499 38.8732 43.4231 39.281C44.5013 39.9454 44.5013 40.6454 43.4231 41.3442C42.9786 41.6586 42.4417 41.8152 41.8978 41.789C41.4289 41.7925 40.953 41.7235 40.4795 41.7132ZM70.5438 40.2293C70.5932 38.7235 71.7266 38.7925 72.8139 38.8649C73.1228 38.8912 73.4329 38.8984 73.7427 38.8867H78.5438C78.7426 38.8716 78.9423 38.9008 79.1285 38.9723C79.3146 39.0438 79.4826 39.1557 79.6202 39.3C79.7578 39.4443 79.8616 39.6174 79.9241 39.8067C79.9866 39.9961 80.0063 40.1969 79.9818 40.3948C79.9785 40.5788 79.9385 40.7604 79.8641 40.9287C79.7896 41.097 79.6822 41.2488 79.5482 41.3749C79.4142 41.5011 79.2563 41.5992 79.0838 41.6634C78.9113 41.7276 78.7277 41.7567 78.5438 41.7488H73.7438C73.4373 41.7337 73.1301 41.7391 72.8243 41.7649C72.6013 41.7775 72.376 41.7902 72.1599 41.7902C71.2588 41.7913 70.5013 41.5707 70.545 40.2281L70.5438 40.2293ZM89.0967 40.8385C88.9577 40.5634 88.9239 40.2469 89.0018 39.9487C89.0797 39.6504 89.2639 39.3909 89.5197 39.2189C90.15 38.9455 90.8292 38.8026 91.5163 38.7989C92.2034 38.7951 92.8841 38.9306 93.5174 39.1971C93.7654 39.3756 93.9458 39.6328 94.0293 39.9268C94.1127 40.2208 94.0944 40.5344 93.9771 40.8166C93.699 41.5477 93.0749 41.7798 91.268 41.7695C91.1162 41.7764 90.9565 41.7844 90.7933 41.7844C90.4466 41.8268 90.0954 41.7579 89.7904 41.5877C89.4855 41.4174 89.2425 41.1558 89.0967 40.8385ZM23.2277 41.7132H2.57945C2.33463 41.735 2.08865 41.7684 1.85647 41.7684C0.785202 41.7844 -0.0596255 41.358 0.0610642 40.2166C0.217386 38.6971 1.43348 38.7638 2.5898 38.8959H23.2277C23.5897 38.8537 23.9544 38.8391 24.3185 38.8523C25.2381 38.9408 25.8783 39.4603 25.7565 40.3936C25.7488 40.598 25.698 40.7985 25.6074 40.9819C25.5167 41.1653 25.3883 41.3274 25.2306 41.4577C25.0729 41.588 24.8894 41.6834 24.6922 41.7377C24.495 41.792 24.2885 41.8041 24.0864 41.7729C23.7992 41.7703 23.5125 41.7503 23.2277 41.7132ZM44.7047 40.2189C44.7599 38.9546 45.8093 38.7879 46.8657 38.8396C47.1105 38.85 47.3576 38.8718 47.5921 38.8948H56.7967C56.9945 38.8763 57.1939 38.9029 57.3799 38.9725C57.5659 39.0422 57.7338 39.153 57.8708 39.2968C58.0079 39.4406 58.1106 39.6136 58.1712 39.8028C58.2318 39.9919 58.2488 40.1924 58.2208 40.389C58.2244 40.5723 58.1892 40.7543 58.1175 40.923C58.0457 41.0917 57.9391 41.2433 57.8046 41.3678C57.6701 41.4923 57.5107 41.587 57.337 41.6455C57.1633 41.704 56.9791 41.7252 56.7967 41.7074H47.5921C47.3484 41.7293 47.1024 41.7511 46.8657 41.7626C46.7634 41.7626 46.6622 41.7707 46.5611 41.7707C45.545 41.7764 44.6542 41.4867 44.707 40.2166L44.7047 40.2189ZM96.3047 41.7569C95.9177 41.745 95.5492 41.5881 95.2724 41.3173C94.9957 41.0464 94.8308 40.6815 94.8105 40.2948C94.8286 40.0755 94.8922 39.8624 94.9973 39.669C95.1023 39.4756 95.2464 39.3062 95.4205 39.1716C95.5946 39.037 95.7948 38.9401 96.0084 38.8871C96.222 38.8341 96.4442 38.8261 96.6611 38.8638C97.5875 38.9408 98.1783 39.4615 98.1001 40.3948C98.0953 40.5909 98.0497 40.7839 97.9663 40.9615C97.8829 41.1391 97.7635 41.2974 97.6156 41.4263C97.4677 41.5553 97.2947 41.6521 97.1074 41.7106C96.9201 41.7691 96.7227 41.7879 96.5277 41.7661C96.4542 41.7661 96.3795 41.7626 96.3047 41.7569ZM85.6151 41.7454H82.6726C82.2513 41.7768 81.8281 41.7695 81.4082 41.7235C81.2249 41.7079 81.0465 41.6562 80.8832 41.5714C80.72 41.4866 80.5751 41.3703 80.457 41.2293C80.3388 41.0883 80.2497 40.9253 80.1948 40.7498C80.1399 40.5742 80.1202 40.3895 80.1369 40.2063C80.1475 39.8666 80.2831 39.5428 80.5177 39.297C80.7523 39.0511 81.0694 38.9006 81.4082 38.8741C81.8284 38.8339 82.2512 38.8266 82.6726 38.8523H85.6151C86.0363 38.8211 86.4595 38.8284 86.8794 38.8741C87.0639 38.8881 87.2436 38.9387 87.4082 39.0232C87.5727 39.1076 87.7187 39.2241 87.8376 39.3658C87.9565 39.5075 88.0458 39.6715 88.1004 39.8482C88.1549 40.0249 88.1736 40.2108 88.1553 40.3948C88.1461 40.7334 88.0118 41.0566 87.7783 41.3019C87.5448 41.5473 87.2287 41.6975 86.8909 41.7235C86.7202 41.7534 86.547 41.7673 86.3737 41.7649C86.122 41.7649 85.8691 41.7454 85.6197 41.7454H85.6151ZM58.868 40.1488C59.0231 38.6396 60.2473 38.7063 61.3852 38.8166H68.3967C68.5939 38.8013 68.792 38.8301 68.9767 38.9007C69.1615 38.9714 69.3282 39.0823 69.4648 39.2253C69.6014 39.3683 69.7045 39.5399 69.7667 39.7276C69.8289 39.9154 69.8485 40.1146 69.8243 40.3109C69.8232 40.4941 69.7848 40.6753 69.7116 40.8432C69.6384 41.0112 69.5317 41.1626 69.3982 41.2881C69.2647 41.4137 69.1071 41.5108 68.935 41.5736C68.7628 41.6364 68.5797 41.6635 68.3967 41.6534H61.3852C61.1404 41.6638 60.8944 41.6982 60.6622 41.6982H60.6266C59.5749 41.7017 58.7622 41.2672 58.8726 40.1488H58.868ZM1.62313 31.8316C1.06208 31.4012 0.62038 30.8346 0.339992 30.1855C0.0596034 29.5363 -0.0501582 28.8263 0.0211348 28.1228C0.0924277 27.4193 0.342407 26.7458 0.747324 26.1661C1.15224 25.5864 1.69865 25.1199 2.33463 24.8109C4.10102 23.9423 6.0289 23.4511 7.99555 23.3684C10.6893 23.1251 13.4048 23.3357 16.0289 23.9913C16.7634 24.1684 17.6116 24.3235 17.3783 25.3316C17.1082 26.5201 16.1634 25.8775 15.5726 25.7442C11.8289 24.9097 8.07371 24.3787 4.2852 25.4419C2.80244 25.8534 0.973708 26.2465 0.919685 28.05C0.874857 29.6994 2.5806 30.3775 3.95072 30.8661C8.2517 32.4436 12.9505 32.572 17.3312 31.2316C19.0496 30.7109 20.8185 29.935 21.1404 27.9166C21.4553 25.9316 20.0737 24.658 18.668 23.5086C18.2898 23.1994 17.8783 22.9442 17.4634 22.6672C16.907 22.3132 16.2726 22.0925 16.4392 21.158C16.607 20.25 17.33 20.273 17.9335 20.0511C18.445 19.8603 19.0001 19.7603 19.5162 19.5603C20.8507 19.0511 22.1013 18.5258 21.8772 16.6672C21.9321 15.9405 22.1089 15.2283 22.4001 14.5603C22.5565 13.9293 22.7795 13.3615 23.5611 13.373C24.5174 13.3948 24.5059 14.2281 24.607 14.8373C24.7047 15.818 24.4906 16.8045 23.9954 17.6565C23.5001 18.5086 22.7489 19.1828 21.8484 19.5833C20.5481 20.2084 19.174 20.6668 17.7588 20.9477C18.8968 21.7159 19.93 22.6289 20.8323 23.6638C23.0852 26.5258 22.6932 29.5856 19.7875 31.8166C17.6496 33.4534 14.168 34.2707 10.6909 34.2707C7.21394 34.2707 3.74957 33.4592 1.62313 31.8316ZM55.7266 32.2557C54.9859 31.8778 54.3766 31.2848 53.9787 30.5546C53.5808 29.8245 53.4128 28.9911 53.4967 28.1638C53.5167 27.3897 53.7714 26.6399 54.2271 26.0138C54.6828 25.3878 55.3179 24.9149 56.0484 24.658C60.6634 22.7316 65.3863 22.9339 70.1208 24.1155C70.2602 24.1299 70.3948 24.1749 70.5148 24.2472C70.6348 24.3196 70.7373 24.4176 70.8151 24.5343C70.8928 24.6509 70.9438 24.7832 70.9645 24.9218C70.9852 25.0605 70.975 25.2019 70.9346 25.3362C70.7047 26.2557 69.9657 25.9109 69.4323 25.7959C66.2272 24.9182 62.8848 24.6549 59.5818 25.0201C58.1133 25.1555 56.6936 25.6173 55.4266 26.3718C54.0208 27.327 53.9553 28.3798 55.1714 29.5224C55.3087 29.646 55.4534 29.7612 55.6047 29.8672C59.3829 32.6833 69.2668 32.8293 73.0886 30.1327C75.0427 28.7592 75.3059 26.8741 73.7001 24.9442C71.7461 22.5798 69.0323 21.45 66.2116 20.5063C65.7438 20.3511 65.2772 20.2178 64.7955 20.0959C64.0944 19.9074 63.4381 19.6419 63.7174 18.7419C63.9944 17.8672 64.6519 18.2097 65.2323 18.3971C68.144 19.1631 70.8598 20.5386 73.2001 22.4327C74.1312 23.2315 74.8732 24.2271 75.3726 25.3477C75.4001 25.2258 75.4036 25.0546 75.468 25.0327C77.6519 24.1132 78.2323 22.4477 78.3668 20.1408C78.5668 16.5695 79.2864 13.0224 79.7795 9.45111C79.8818 8.71778 80.0013 8.04192 80.9507 8.19594C81.9323 8.36261 81.507 9.12928 81.43 9.66146C80.8289 13.6419 80.1277 17.6017 79.8139 21.6385C80.5519 21.6488 80.8967 21.0638 81.3082 20.6753C86.8346 15.4959 90.9243 9.4741 92.4174 1.93158C92.5519 1.22238 92.5634 0.278702 93.6542 0.577553C94.6346 0.846518 94.1346 1.72698 94.0231 2.27525C92.5174 9.37066 88.7174 15.173 83.6128 20.2178C83.0886 20.7408 82.5335 21.2166 81.7978 21.8925C83.3794 22.0798 84.9726 22.0913 85.507 23.7109C86.3001 26.1385 85.5737 28.389 84.4726 30.5661C84.6726 31.0258 85.0197 30.9844 85.3703 30.9477C85.5839 30.8986 85.8077 30.92 86.0082 31.0086C91.2116 29.8431 94.4783 26.3603 96.9737 21.958C97.3834 21.2095 97.7447 20.4355 98.0553 19.6408C98.322 18.9764 98.6116 18.2534 99.4565 18.6063C100.561 19.0488 99.6576 19.7798 99.4461 20.2442C97.2622 25.0477 94.1668 29.0178 89.0726 31.081C87.7098 31.6408 86.2567 31.9485 84.784 31.989C83.9995 31.9856 83.225 32.1651 82.522 32.5132C82.1665 32.7335 81.7632 32.865 81.3461 32.8966C80.9291 32.9282 80.5106 32.859 80.126 32.6947C79.7413 32.5305 79.4019 32.2761 79.1363 31.953C78.8707 31.6299 78.6868 31.2476 78.6001 30.8385C78.0467 28.9156 77.8099 26.9155 77.899 24.9166C77.022 25.0051 76.3024 25.958 75.3829 25.3764C76.5013 28.1028 75.3013 30.8752 71.9047 32.6592C69.4402 33.7872 66.7455 34.3218 64.0369 34.2201H63.7254C60.9344 34.2656 58.179 33.5889 55.7266 32.2557ZM81.3174 23.4902C80.5346 24.3454 80.0787 25.4494 80.0299 26.6077C79.9811 27.766 80.3426 28.9044 81.0507 29.8224C82.2208 31.1097 82.7749 31.0097 83.4231 29.3798C83.8431 28.3591 84.0883 27.275 84.1484 26.173C84.2052 25.4587 84.1096 24.7406 83.868 24.0661C83.5231 23.2925 83.0553 22.8948 82.5231 22.8948C82.0605 22.9339 81.6297 23.1466 81.3174 23.4902ZM34.7415 30.8649C34.4434 29.9406 34.2567 28.984 34.1852 28.0155C34.0955 27.05 34.1622 26.0615 34.1622 25.0764C33.7886 25.0767 33.4225 25.181 33.1047 25.3775C32.6024 25.6293 32.1208 25.8821 31.5427 25.4419C31.576 25.3086 31.576 25.1431 31.6346 25.1201C33.9197 24.235 34.3519 22.4373 34.5312 20.2086C34.8197 16.5707 35.4875 12.9672 35.9772 9.33962C36.0795 8.62008 36.3588 8.14077 37.1381 8.29824C37.976 8.45341 37.6737 9.09594 37.5978 9.61663C37.0231 13.6316 36.4714 17.6569 35.8599 21.9833C36.159 21.8216 36.4487 21.6432 36.7277 21.4488C42.6381 16.1385 47.0415 9.89364 48.6024 1.95341C48.7358 1.28905 48.7588 0.481001 49.7404 0.646518C50.8645 0.833875 50.3151 1.69824 50.2082 2.24077C48.7036 9.54997 44.7576 15.4718 39.4645 20.6316C39.0197 21.0523 38.5634 21.45 37.9185 22.0511C41.3484 22.3281 42.23 23.3913 41.8967 26.6752C41.7993 28.7084 40.9439 30.6312 39.499 32.0649C38.9201 32.6526 38.1393 32.9981 37.3151 33.0316C36.7094 32.9976 36.1311 32.7681 35.667 32.3774C35.2029 31.9867 34.8782 31.4559 34.7415 30.8649ZM37.6369 23.4235C35.6093 24.9879 35.7783 29.1235 37.8955 30.4994C38.5174 30.9097 38.93 30.9592 39.2967 30.1787C39.8967 28.8489 40.2447 27.4194 40.3231 25.9626C40.3881 25.2908 40.2726 24.6139 39.9886 24.0017C39.6737 23.312 39.2484 22.9672 38.7415 22.9672C38.3333 22.9943 37.9453 23.1546 37.6369 23.4235ZM46.8323 31.4638C46.507 29.8435 46.4023 28.1868 46.5208 26.5385C46.6791 25.8138 46.558 25.0562 46.1819 24.4169C45.8058 23.7777 45.2024 23.3038 44.4921 23.0902C41.6427 21.7281 41.4059 19.412 43.9909 17.558C46.3046 15.8753 48.9485 14.7017 51.7484 14.1145C54.5484 13.5273 57.441 13.5398 60.2358 14.1511C62.43 14.5833 62.7519 15.6603 61.5955 17.6235C61.5154 17.7879 61.4134 17.9407 61.2921 18.0775C60.7243 18.6753 60.2691 20.0511 59.5461 19.6304C58.5634 19.0557 59.9461 18.3764 60.1795 17.712C60.5576 16.635 60.3795 15.9258 59.3001 15.5166C58.9638 15.366 58.6064 15.268 58.2404 15.2258C54.1867 14.7913 50.0942 15.5474 46.4634 17.4017C43.6335 18.8856 43.622 20.5385 46.4634 22.5132C46.607 21.4385 46.7185 20.5281 46.8737 19.6304C46.8847 19.4106 46.9801 19.2035 47.1401 19.0523C47.3 18.9011 47.5122 18.8175 47.7323 18.8189C48.3783 18.8523 48.2013 19.4086 48.2116 19.8074C48.2475 20.4176 48.2329 21.0296 48.168 21.6373C47.9898 22.9442 48.2461 23.9097 49.7392 24.1982C50.1289 24.2753 50.6955 24.4281 50.4634 25.0028C50.2852 25.4373 49.784 25.2247 49.4841 25.0798C48.2197 24.4925 48.1243 25.1684 48.068 26.1787C48.0997 28.3741 47.9021 30.5669 47.4783 32.7212C46.8519 32.4741 46.9093 31.9396 46.8323 31.4638ZM21.1346 32.189C20.9128 31.5247 21.6829 31.4994 22.0691 31.3362C24.0077 30.5983 25.873 29.6805 27.6404 28.5948C30.2841 26.7867 30.1841 25.3028 27.4185 23.7603C26.8622 23.45 25.5461 23.4396 25.9473 22.5948C26.4277 21.5982 27.4749 22.373 28.1887 22.7385C29.7277 23.5051 31.2634 24.3247 31.5657 26.089C31.5714 26.4866 31.4894 26.8804 31.3255 27.2426C31.1616 27.6048 30.9198 27.9264 30.6174 28.1844C28.2645 30.3362 25.2818 31.3247 22.4139 32.5201C22.2402 32.5931 22.0541 32.6321 21.8657 32.635C21.7116 32.6505 21.5566 32.6153 21.4243 32.5348C21.292 32.4543 21.1895 32.333 21.1323 32.189H21.1346ZM67.9312 28.0028C67.946 27.7278 68.0608 27.4676 68.2541 27.2713C68.4474 27.0751 68.7058 26.9563 68.9806 26.9373C69.087 26.9205 69.1959 26.93 69.2978 26.9651C69.3996 27.0001 69.4913 27.0596 69.5649 27.1384C69.6384 27.2171 69.6915 27.3127 69.7195 27.4167C69.7475 27.5207 69.7495 27.63 69.7254 27.735C69.7007 28.0422 69.5671 28.3306 69.3489 28.5482C69.1306 28.7658 68.8419 28.8985 68.5346 28.9224C67.9875 28.8339 67.8542 28.4684 67.9312 28.0028Z" fill="#0B032D"/>
</svg>
