<svg width="37" height="37" viewBox="0 0 37 37" fill="none" xmlns="http://www.w3.org/2000/svg">
<path d="M0.5 8C0.5 3.85786 3.85786 0.5 8 0.5H29C33.1421 0.5 36.5 3.85786 36.5 8V29C36.5 33.1421 33.1421 36.5 29 36.5H8C3.85786 36.5 0.5 33.1421 0.5 29V8Z" stroke="#0B032D" stroke-linecap="round"/>
<path d="M26 14.9583H11C10.6583 14.9583 10.375 14.6749 10.375 14.3333C10.375 13.9916 10.6583 13.7083 11 13.7083H26C26.3417 13.7083 26.625 13.9916 26.625 14.3333C26.625 14.6749 26.3417 14.9583 26 14.9583Z" fill="#0B032D"/>
<path d="M26 19.125H11C10.6583 19.125 10.375 18.8417 10.375 18.5C10.375 18.1583 10.6583 17.875 11 17.875H26C26.3417 17.875 26.625 18.1583 26.625 18.5C26.625 18.8417 26.3417 19.125 26 19.125Z" fill="#0B032D"/>
<path d="M26 23.2917H11C10.6583 23.2917 10.375 23.0084 10.375 22.6667C10.375 22.3251 10.6583 22.0417 11 22.0417H26C26.3417 22.0417 26.625 22.3251 26.625 22.6667C26.625 23.0084 26.3417 23.2917 26 23.2917Z" fill="#0B032D"/>
</svg>
